<?xml version="1.0" encoding="UTF-8"?>
<svg version="1.1" viewBox="0 0 1024 1024" width="1024" height="1024" xmlns="http://www.w3.org/2000/svg">
<path transform="translate(449,293)" d="m0 0h38v4l-8 6-1 2-7 2 1 6h2v-5l7-1 4 5 4 11 1 3 4 2 10 15 20 26 9 12 10 13 8 16 4 10 9 10 9 13 5 11 4 13v7l5-3 7-17 7-27 8-16 9-8 4-1-1-7-9-12-2-2-12-1-5-4-1-3v-7l4-6 2-1h7l7 6 3 10 9 10 8 10 1 1h7l1-1 2-10 5-13 7-13 2-9 3-3 6-1 5 2 5 5 1 6-2 5-3 3-11 1-3 4-6 16v10l14 8 8 8 5 11v17l-3 7-6 8-9 6-3 1-2 6-1 50-3 15-6 16-6 10-8 10-2 2 25 1 11 2 2 2v5l-4 4h-2l-1 12 3 12 9 8 1 4-10 4-43 11-27 6h-21l-36-7-24-4-38-4-52-2-9-1v-1l14-2h63l29 3 26 4 11 1-1-10-4-3-30-6-24-3-15-1h-28l-23 2-29 4-30 6-24 6-17 3-19 4-5 1 2-1 1-3 32-16 9-4 29-11 18-5h2v-2l-6-1-18-5-9-4-3-3v-7l9-8 17-9 17-7v-4l-9-15-6-15-3-15-1-26-17-8-8-6-5-4-6-10-1-12-14-10-7-8-6-12-7-10-6-12-5-13-1-5v-14l4-6 1-1h13l50 16 7 2-1-2v-15l2-10 1-1h7v30l30 11 12 6 12 8 10 9 3 3h5l-2-7-8-14-7-19-1-9-17 2h-15l-5-5-5-15v-2h-21l-7-2 1-3 21-12 23-13 11-6zm24 40-16 9-4 3v11l4 11 5 9 4 5 5 5 5 3 2 6 18 1 14 3 15 5 12 6 5 2-3-9-7-10-8-10-11-14-10-13-7-11h-2l-1 4-6 1-7-2-3-6-1-9z" fill="#3E4286"/>
<path transform="translate(476,404)" d="m0 0h26l18 5 16 8 9 7 10 9 8 9 7 14 4 13v20l-4 13-7 14-7 10-6 7-10 7-8 4-9 4-7 2h-4l2-6 8-14 5-13 2-10v-12l-3-14-7-13-1-3h-2l-6-8-16-9-4-1h-18l-9 3-9 5-10 9-5 10-2 7v12l4 11 5 7 9 6 10 3h11l12-5 8-7 4-7v-14l-3-5v-2l-5-2-4-2h-10l-7 5-3 5v10l5 8 6 5 4 1-1 4-8 2h-10l-9-3-8-8-4-9v-16l4-10 4-5h2l2-4h3l2-4 12-5 9-1 12 3 11 6 10 10 7 14 2 7v17l-4 16-9 16-11 12-7 5-5 1v2l-13 4h-22l-13-5-10-6-13-12-6-8-7-15-5-16-1-6v-16l2-5 14-4 12-6 11-12 11-7 11-8 3-3h2l1-3h3v-13l-3-7-1-4z" fill="#8997C2"/>
<path transform="translate(634,403)" d="m0 0h12l10 4 9 7 6 8 2 6v12l-2 7-8 7-8 3-15 1 4 3 6 3-1 12-1 41-3 18-5 13-6 10-8 10-11 8-10 6-14 4-8 1h-9l-28-5-10-2-10-1h-22l-15 1-2 1-13 2-29 4h-27l-22-3-11-2-12-5v-4l5-3 19-10 16-6 4-1 5 3v2l6 1v2l4 1 2 2 14 5 11 2h8l10-2 8-3 11-5 16-5 21-6 16-8 10-9 10-13 6-13 5-12 7-9 3-6h2l3-10 4-8 10-35 3-7 6-8 4-5 7-3z" fill="#FDDB7D"/>
<path transform="translate(315,350)" d="m0 0h7l17 5 30 10 24 7 13 5 10 3 17 8 11 9 9 9 8 13 1 9-4 7-6 5-8 2-1 3-8 6-5 5h-2l-1 3-8 5-13 3h-9l-7-3-1-2-14-4-8-5-6-10v-9l4-4 6-2 11-2 3-3-7 1h-25l-9-5-2-5h-2l-1-6 3-2 13-1v-2l-15-2-5-2-10-9-8-16-3-12v-11z" fill="#F7F8FA"/>
<path transform="translate(661,587)" d="m0 0 1 2-2 4-1-2h-2v8l-2 4-10 2h7l1-1h6l-1 5v2l3 1v3l3 1-3 3-18 4-10 2-41 9-13 2-3-3-3-9-1-6v-14l4-2 38-7 14-3 22-4z" fill="#B8C5D8"/>
<path transform="translate(477,451)" d="m0 0 10 1 12 5 8 6 7 7 6 12 1 11-13 2h-5l-3-8-3-5v-2l-5-2-4-2h-10l-7 5-3 5v10l5 8 6 5 4 1-1 4-8 2h-10l-9-3-8-8-4-9v-16l4-10 4-5h2l2-4h3l2-4 12-5z" fill="#BECADB"/>
<path transform="translate(356,379)" d="m0 0 9 1 7 2v2l14 3 14 2 10 3 18 5 12 7 8 7 3 5v2h2l4 11 2-2 1-3h2l-1 6-3 5-6 5-8 2-1 3-8 6-5 5h-2l-1 3-8 5-13 3h-9l-4-2 19-2 5-1v-3l5-1v-2l3-3-1-7 2-11-7 1h-8l1-3 8-1v-3l8-2v-3h-2l-2-3-21-1-2-1 1-4 13-1 1-13h-3v-2h-11l-17-4-4-2v-2l-6-1-18-8z" fill="#BFCBDB"/>
<path transform="translate(587,609)" d="m0 0h2v2l-5 1v2l-4 1 1 3h-5l1 3 8 1-1-3 8-1h9v-2h-5l3-3h4v2h8l9-1h5v3l-11 1-1 2-19 3 1 1 11-1v-2l14-1 11-3 16-3 8-2h6v3l3 1-3 3-18 4-10 2-41 9-13 2-3-3-3-9-1-13z" fill="#BECADB"/>
<path transform="translate(618,599)" d="m0 0h4v2l-7 2-8 1-1 2-10 1h9l7-1v3l-6 2h12l11-3h7l1 3-9 1 2 1 12-1v-3h12l-1-5h6l-1 5v3l-19 5-12 2-7 2h-14v2l-13 2v-3l11-2h9l1-3 11-1v-1h-8l-6 1h-9l1-3-5 2 3 1v2l-16 2v2h-8l-2-4 2-1 4 1v-2l-2-1 5-1v-2l5-1v-2l-10 2h-7l1-3 16-4 20-3 1-1z" fill="#C6D0DF"/>
<path transform="translate(477,479)" d="m0 0h11l7 5 2 3v13l-5 6-4 2-7-1-7-6-2-5v-10l4-6z" fill="#8997C2"/>
<path transform="translate(655,612)" d="m0 0h6v3l3 1-3 3-18 4-10 2-17 4-16 2-15 3h-5l-4-5v-2h12v1l7-1 7-2h10l-1-3 21-3 7-3z" fill="#FCFCFD"/>
<path transform="translate(356,379)" d="m0 0 9 1 7 2v2l14 3 11 3 16 4 7 3v3l-18-1-17-4-4-2v-2l-6-1-18-8z" fill="#8B99C3"/>
<path transform="translate(653,604)" d="m0 0h6l-1 5v3l-19 5-12 2-7 2h-14v2l-13 2v-3l11-2h9l1-3 11-1v-1h-8l-6 1h-9l1-2 15-3 11-3h7l1 3-9 1 2 1 12-1v-3h12z" fill="#C0CCDC"/>
<path transform="translate(650,594)" d="m0 0h6l1 5-2 4-10 2h10l-1 4h-12v2l3 1-9 2-9-1 1-2h9l-1-2-6-2 1-2-4-2 3-1-5-1 4-1v-2l2-1 11-1-1 2h6l-3-2zm-12 5v2h2v-2z" fill="#D7DFE8"/>
<path transform="translate(587,609)" d="m0 0h2v2l-5 1v2l-4 1 1 3h-5l1 3 8 1-1-3 8-1h9v-2h-5l3-3h4v2h8l9-1h5v3l-11 1-1 2-24 2-12 4h-2l-3-15z" fill="#F2F5F7"/>
<path transform="translate(614,597)" d="m0 0h5l-4 3-6 2-20 3-13 3h-4v-4l4-2 23-4z" fill="#E8EBF2"/>
<path transform="translate(461,458)" d="m0 0 2 1-5 6-5 5-3 5-2 7v19l-3-3-2-9v-9l4-10 4-5h2l2-4z" fill="#EDF0F5"/>
<path transform="translate(478,307)" d="m0 0 4 1-2 1 2 7 3 6 1 8 4 6v6l-7 2-2-1v-25h-2z" fill="#FEDC7D"/>
<path transform="translate(402,415)" d="m0 0h30l1 2-10 3h-20l-2-1z" fill="#ACB9D3"/>
<path transform="translate(621,602)" d="m0 0 4 2-8 2h-4v2l10-1-1 4-4 1h-13l1-2 6-1v-3l-7 2h-11l2-2h10l1-3h9z" fill="#F9FAFB"/>
<path transform="translate(640,604)" d="m0 0h5v1h10l-1 4h-12v2l3 1-9 2-9-1 1-2h9l-1-2-3-2z" fill="#B8C4D8"/>
<path transform="translate(434,426)" d="m0 0h7l3 4-1 4-3-3-14 1-9 3h-5v-2l8-1v-3l10-2z" fill="#8794BF"/>
<path transform="translate(618,599)" d="m0 0h4v2l-7 2-8 1-1 2-14 1-7 2h-8l3-3 21-4 8-1 1-1z" fill="#8B95BC"/>
<path transform="translate(661,587)" d="m0 0 1 2-2 4-1-2h-2v3l-11 2 2 3h-8v-2l-11 1v2h-5l3-3 9-2 1-1 10-1 1-1 7-1 1-1h-12v-1zm-23 12h2v2h-2z" fill="#9AA7CA"/>
<path transform="translate(651,589)" d="m0 0h7l-3 3-7 1-1 1-10 1-7 2-8-2v-1h6v-2l11-2z" fill="#CFD7E4"/>
<path transform="translate(599,613)" d="m0 0h4v2h8l9-1h5v3l-11 1-1 2-12 1v-1l-9-1v-1h9v-2h-5z" fill="#BCC8DA"/>
<path transform="translate(658,612)" d="m0 0h3v3l3 1-3 3-18 4-10 2-17 4h-6l4-2 7-2 16-3 4-2 11-2h6z" fill="#ADBAD3"/>
<path transform="translate(631,615)" d="m0 0h7l-1 2-17 4h-14v2l-13 2v-3l11-2h9l1-3 13-1z" fill="#8A96BF"/>
<path transform="translate(584,613)" d="m0 0h7v1l-6 1-1 2 4-1h13v2l-16 2v2h-8l-2-4 2-1 4 1v-2l-2-1z" fill="#9BA8C9"/>
<path transform="translate(600,364)" d="m0 0 6 1 2 3v5l-2 2h-6l-3-3 1-7z" fill="#F1D585"/>
<path transform="translate(640,426)" d="m0 0 6 1 1 2v7l-2 2-6-1-1-2v-7z" fill="#44488B"/>
<path transform="translate(407,444)" d="m0 0h4l-2 4-13 5-6-1 2-4z" fill="#5E659F"/>
<path transform="translate(675,624)" d="m0 0h7l22 7 4 3-8-1-19-5-6-3z" fill="#555C99"/>
<path transform="translate(356,379)" d="m0 0 5 1 18 7 5 3v2l-9-2-18-8z" fill="#3A3D83"/>
<path transform="translate(663,352)" d="m0 0h6l3 4-1 5-8-1-2-2v-5z" fill="#FEDC7D"/>
<path transform="translate(629,608)" d="m0 0h7l1 3-16 2-4 2-6 1h-9l1-2 15-3z" fill="#838FBB"/>
<path transform="translate(409,378)" d="m0 0 9 3 16 8 10 8 9 9-1 2-7-6-5-6-14-9-16-7z" fill="#A5B2CF"/>
<path transform="translate(557,621)" d="m0 0 4 2 2 4 2 1-1 4-7 1-11-1v-1h11l-1-7z" fill="#8F9CC4"/>
<path transform="translate(574,619)" d="m0 0h2l1 2 8 1-1-3h18l-1 2-12 1-12 4h-2z" fill="#F5F6F9"/>
<path transform="translate(659,590)" d="m0 0h1l1 13-1-3-2 1-1 3-5 2h-11l4-2 10-2 2-11z" fill="#646CA4"/>
<path transform="translate(631,617)" d="m0 0 4 1-3 2-20 3v2h-11l1-2h4v-2l14-1z" fill="#C2CEDD"/>
<path transform="translate(650,594)" d="m0 0h6l1 5-2 4h-5l2-2-8-4 2-2z" fill="#C5D0DF"/>
<path transform="translate(612,607)" d="m0 0h11l-1 4-4 1h-13l1-2 6-1z" fill="#E3E8EF"/>
<path transform="translate(369,453)" d="m0 0 10 1 5 4 7 1 2 6-3-1-1-2-14-4-6-4z" fill="#ABB8D2"/>
<path transform="translate(403,416)" d="m0 0h26l-3 2-21 1-3-2z" fill="#3A3D83"/>
<path transform="translate(626,611)" d="m0 0 4 2h11l2 3-6 1v-1l-12 1v-2h-7v-2z" fill="#BAC7D9"/>
<path transform="translate(481,377)" d="m0 0 6 1 7 6 1 4-5-2-9-7z" fill="#4E5393"/>
<path transform="translate(610,606)" d="m0 0h2v3l-7 3h-7l-5-1 1-2 10-1z" fill="#9AA7CA"/>
<path transform="translate(604,629)" d="m0 0h6l-4 2-24 5-4-1-2-4 7 1 2 1z" fill="#A9B6D1"/>
<path transform="translate(618,599)" d="m0 0h4v2l-7 2-13 2h-5l4-3 8-1 1-1z" fill="#7F8AB7"/>
<path transform="translate(426,429)" d="m0 0h10l-2 2-8 1-9 3h-5v-2z" fill="#3D4085"/>
<path transform="translate(326,626)" d="m0 0 5 1h5l-4 2-14 3-4-1 8-4z" fill="#92A0C6"/>
<path transform="translate(651,589)" d="m0 0h7l-3 3-7 1h-10l2-2z" fill="#FEFEFE"/>
<path transform="translate(631,623)" d="m0 0h10v1l-18 3-7 2h-6l4-2 7-2z" fill="#A7B4D0"/>
<path transform="translate(617,614)" d="m0 0h8v3l-11 1h-4l-1-2z" fill="#FEFEFE"/>
<path transform="translate(637,610)" d="m0 0 8 1-3 2-12 1-3-2 1-1z" fill="#FEFEFE"/>
<path transform="translate(478,307)" d="m0 0 4 1-2 1 2 7 3 6-1 3h-2l-1-7h-2z" fill="#99A6C9"/>
<path transform="translate(588,616)" d="m0 0h13v2l-17 1-2-2z" fill="#818DBA"/>
<path transform="translate(650,610)" d="m0 0 4 2-2 2-5 1h-8l3-3z" fill="#848FBA"/>
<path transform="translate(391,388)" d="m0 0 9 1 10 3 9 3-3 1-17-4-8-3z" fill="#C2CEDD"/>
<path transform="translate(644,598)" d="m0 0 7 1 2 3-7 1-5-2v-2z" fill="#F9FAFB"/>
<path transform="translate(395,447)" d="m0 0 3 1 3 3-5 2-6-1 2-4z" fill="#8997C2"/>
<path transform="translate(652,605)" d="m0 0 3 1-1 3h-14l1-2z" fill="#FEFEFE"/>
<path transform="translate(629,608)" d="m0 0h7l1 3-13 1-2-2z" fill="#919EC5"/>
<path transform="translate(426,431)" d="m0 0h8v1l-7 2-1 1-7 1h-8l1-2 10-1z" fill="#9AA8CA"/>
<path transform="translate(407,415)" d="m0 0h25l1 2-7 1v-1l-19-1z" fill="#8997C2"/>
<path transform="translate(476,389)" d="m0 0h1l1 5 18 1v1h-19l-3-1v-4h2z" fill="#8997C2"/>
<path transform="translate(456,433)" d="m0 0h2v2l-6 5-8 2 5-5z" fill="#8997C2"/>
<path transform="translate(574,619)" d="m0 0h2l1 2 7 1-1 2-8 2z" fill="#FEFEFE"/>
<path transform="translate(604,620)" d="m0 0h2v3l-13 2v-3z" fill="#8997C2"/>
<path transform="translate(653,604)" d="m0 0h6l-1 5-4 1z" fill="#AEBAD3"/>
<path transform="translate(390,448)" d="m0 0 2 1-2 3 6 1v1l-11-1 2-4z" fill="#C2CEDD"/>
</svg>
